<?xml version="1.0" encoding="UTF-8"?>
<svg width="700pt" height="700pt" version="1.1" viewBox="0 0 700 700" xmlns="http://www.w3.org/2000/svg">
 <g>
  <path d="m492.1 105-2.1016-4.1992c-14.875-29.75-44.977-48.301-78.227-48.301h-123.55c-33.422 0-63.348 18.551-78.223 48.301l-2.1016 4.1992z"/>
  <path d="m525 122.5h-350c-48.301 0-87.5 39.199-87.5 87.5v210c0 48.301 39.199 87.5 87.5 87.5h350c48.301 0 87.5-39.199 87.5-87.5v-210c0-48.301-39.199-87.5-87.5-87.5zm-175 315c-67.551 0-122.5-54.949-122.5-122.5s54.949-122.5 122.5-122.5 122.5 54.949 122.5 122.5-54.949 122.5-122.5 122.5zm175-210h-35c-9.625 0-17.5-7.875-17.5-17.5s7.875-17.5 17.5-17.5h35c9.625 0 17.5 7.875 17.5 17.5s-7.875 17.5-17.5 17.5z"/>
  <path d="m437.5 315c0 48.324-39.176 87.5-87.5 87.5s-87.5-39.176-87.5-87.5 39.176-87.5 87.5-87.5 87.5 39.176 87.5 87.5"/>
 </g>
</svg>
