<?xml version="1.0" encoding="UTF-8"?>
<svg width="700pt" height="700pt" version="1.1" viewBox="0 0 700 700" xmlns="http://www.w3.org/2000/svg">
 <path d="m146.96 358c-3.9102 2.2422-8.9102 0.89844-11.152-3.0078-2.2422-3.9141-0.89844-8.9141 3.0078-11.156l21.207-12.234c3.9102-2.2422 8.9102-0.89844 11.152 3.0078 2.2422 3.9102 0.89844 8.9102-3.0078 11.152l-21.207 12.242zm392.41-129.07c-4.4453-0.82812-7.3672-5.1133-6.543-9.5508 0.82812-4.4375 5.1133-7.3672 9.5508-6.543l47.316 8.8945c4.4375 0.83203 7.3672 5.1133 6.5352 9.5508-0.82812 4.4453-5.1055 7.3672-9.5508 6.543l-47.312-8.8945zm-60.547-126.22c-1.4883 4.2656-6.1562 6.5234-10.426 5.0352-4.2656-1.4883-6.5234-6.1562-5.0352-10.426l15.945-45.426c1.4883-4.2578 6.1562-6.5156 10.426-5.0352 4.2656 1.4883 6.5234 6.1562 5.0352 10.426zm24.719 68.617c-3.9102 2.2617-8.9219 0.92578-11.184-2.9844-2.2617-3.9102-0.93359-8.9219 2.9766-11.184l44.746-25.836c3.9102-2.2617 8.9219-0.93359 11.184 2.9766 2.2617 3.9102 0.93359 8.9297-2.9766 11.191zm-285.95 218.54 85.699 102.12c2.3672 2.832 5.6406 4.4648 8.9688 4.8008 3.168 0.31641 6.4141-0.50781 9.0078-2.5547 2.7578-2.3086 4.3516-5.207 4.625-8.8359 0.24609-3.2617-0.72266-6.668-2.9219-9.4453l-82.809-98.699c-5.2305 2.6836-10.141 5.6016-15.273 8.3984l-7.2969 4.2148zm6.543-22.594c34.898-19.312 70.984-30.484 107.47-34.832 35.961-4.2852 72.348-1.9453 108.38 5.707-39.078-69.746-82.703-138.48-121.19-208.35-10.656 32.906-25.168 63.316-44.883 90.781-22.156 30.844-50.836 57.906-87.961 80.508l38.191 66.184zm109.37-292.79c-5.6172 3.332-9.4844 8.4805-11.191 14.082-1.6406 5.3906-1.2617 11.223 1.4805 16.246 47.895 78.371 93.121 161.62 139.37 241.35 2.9648 4.8281 7.793 8.0156 13.227 9.2812 5.6367 1.3047 11.914 0.57031 17.535-2.4727 5.8203-3.4141 10.082-8.0234 12.078-14.586 1.6289-5.3594 1.2695-11.164-1.4609-16.164l-139.11-240.95c-2.9492-5.0977-7.9258-8.4609-13.539-9.7617-6.5156-1.5-12.625-0.24609-18.395 2.9766zm-161.67 234.87-42.293 24.414c-4.3594 2.4922-7.3008 6.5938-8.5117 11.152-1.1953 4.4453-0.75391 9.3125 1.5664 13.574 6.9102 11.305 13.109 23.281 19.996 34.598 2.5195 4.3672 6.6094 7.3008 11.145 8.5195 4.5312 1.2031 9.5039 0.72656 13.824-1.7188l42.41-24.48-38.137-66.055zm-8.2422 77.398c-3.9102 2.2617-8.9219 0.92578-11.184-2.9844-2.2617-3.9102-0.93359-8.9219 2.9844-11.184l21.199-12.242c3.9102-2.2617 8.9219-0.93359 11.184 2.9766 2.2617 3.9102 0.93359 8.9219-2.9766 11.184z"/>
</svg>
